<?xml version="1.0" standalone="no"?>
<!DOCTYPE svg PUBLIC "-//W3C//DTD SVG 20010904//EN"
 "http://www.w3.org/TR/2001/REC-SVG-20010904/DTD/svg10.dtd">
<svg version="1.0" xmlns="http://www.w3.org/2000/svg"
 width="512.000000pt" height="512.000000pt" viewBox="0 0 512.000000 512.000000"
 preserveAspectRatio="xMidYMid meet">

<g transform="translate(0.000000,512.000000) scale(0.100000,-0.100000)"
fill="#000000" stroke="none">
<path d="M2207 4865 c-522 -63 -976 -280 -1351 -645 -375 -365 -602 -806 -683
-1330 -24 -160 -24 -500 0 -660 78 -502 288 -926 637 -1284 223 -229 462 -395
743 -515 320 -138 643 -199 987 -188 281 10 488 50 750 148 l106 40 84 -51
c171 -101 353 -146 550 -137 189 10 341 59 497 163 483 321 587 974 227 1433
l-56 72 26 107 c39 164 56 291 63 467 32 881 -453 1713 -1240 2130 -167 89
-429 182 -612 219 -223 45 -512 57 -728 31z m593 -170 c456 -72 866 -281 1195
-610 325 -325 527 -715 605 -1170 27 -156 36 -396 21 -550 -12 -123 -47 -315
-59 -327 -4 -3 -36 11 -70 32 -193 117 -450 167 -667 129 l-62 -11 -99 99
c-103 102 -211 188 -312 248 l-60 36 48 92 c203 385 126 860 -187 1158 -132
125 -281 209 -449 251 -127 32 -341 32 -469 0 -313 -78 -581 -320 -689 -623
-47 -131 -60 -222 -53 -381 6 -161 34 -266 106 -405 l49 -91 -82 -50 c-422
-261 -725 -742 -772 -1229 -3 -40 -9 -73 -13 -73 -10 0 -106 139 -168 242
-191 316 -303 721 -303 1097 0 628 285 1244 760 1644 280 235 617 400 965 472
225 47 541 55 765 20z m-125 -781 c297 -80 520 -305 595 -600 41 -158 22 -378
-44 -528 -89 -202 -278 -374 -489 -447 -462 -159 -962 121 -1071 599 -23 100
-21 266 4 369 77 322 335 562 668 623 68 13 267 3 337 -16z m-862 -1527 c164
-142 345 -223 555 -247 270 -32 557 63 769 254 l52 47 33 -17 c85 -44 260
-177 337 -257 l33 -35 -65 -33 c-201 -99 -389 -312 -466 -525 -51 -140 -64
-228 -58 -388 3 -102 11 -162 26 -216 30 -105 110 -262 176 -348 l56 -72 -28
-11 c-306 -118 -673 -163 -1005 -124 -165 19 -282 46 -448 101 -279 93 -515
230 -755 440 l-88 77 7 117 c16 286 84 516 216 735 111 184 285 365 467 485
58 38 110 70 116 70 5 0 37 -24 70 -53z m2338 -351 c255 -54 475 -231 583
-468 55 -120 71 -196 70 -343 0 -139 -17 -222 -68 -339 -137 -309 -463 -505
-804 -483 -217 15 -396 99 -548 260 -89 92 -143 183 -185 307 -28 83 -33 111
-37 225 -3 108 0 145 17 220 71 299 310 541 606 614 97 24 270 27 366 7z"/>
<path d="M4335 1550 c-11 -5 -121 -110 -245 -234 l-224 -225 -112 109 c-123
120 -145 130 -198 89 -19 -15 -26 -29 -26 -57 0 -33 12 -48 148 -184 133 -133
151 -148 182 -148 31 0 56 22 307 272 240 239 273 276 273 303 0 30 -30 75
-50 75 -4 0 -14 2 -22 4 -7 3 -22 1 -33 -4z"/>
</g>
</svg>
